# xmcd
#
# Track frame offsets:
#       150
#       19912
#       37327
#       52677
#       68255
#       82685
#       100042
#       114457
#       135390
#       149587
#       162687
#       175560
#
# Disc length: 2504 seconds
#
# Revision: 2
# Processed by: cddbd v1.5.2PL0 Copyright (c) Steve Scherf et al.
# Submitted via: FreeDbEdit v0.1
#
DISCID=9209c60c
DTITLE=Various Artist - All Star Country Christmas
DYEAR=1900
DGENRE=Christmas
TTITLE0=Randy Travis - Where My Heart Lives
TTITLE1=Reba McEntire - O Holy Night
TTITLE2=Toby Keith - Christmas to Christmas
TTITLE3=Dwight Yoakam - Santa Can't Stay
TTITLE4=Mark Chesnutt - Light of the World
TTITLE5=Clint Black - Looking for Christmas
TTITLE6=Vince Gill - It Came Upon a Midnight Clear
TTITLE7=Gary Allan - (It Must Have Been Ol') Santa Claus
TTITLE8=Tracy Byrd - No Room
TTITLE9=Alan Jackson - Merry Christmas to Me
TTITLE10=Travis Tritt - Winter Wonderland
TTITLE11=George Strait - Away in a Manger
EXTD=
EXTT0=
EXTT1=
EXTT2=
EXTT3=
EXTT4=
EXTT5=
EXTT6=
EXTT7=
EXTT8=
EXTT9=
EXTT10=
EXTT11=
PLAYORDER=
